<?xml version="1.0" standalone="no"?>
<!DOCTYPE svg PUBLIC "-//W3C//DTD SVG 20010904//EN"
 "http://www.w3.org/TR/2001/REC-SVG-20010904/DTD/svg10.dtd">
<svg version="1.0" xmlns="http://www.w3.org/2000/svg"
 width="368.000000pt" height="291.000000pt" viewBox="0 0 368.000000 291.000000"
 preserveAspectRatio="xMidYMid meet">

<g transform="translate(0.000000,291.000000) scale(0.100000,-0.100000)"
fill="#000000" stroke="none">
<path d="M3553 2900 c-23 -5 -51 -14 -63 -20 -14 -8 -31 -8 -58 0 -20 5 -56
10 -79 10 l-43 0 0 -120 0 -120 43 0 44 0 6 -107 c4 -58 7 -141 7 -185 l0 -78
-115 0 -115 0 0 48 c0 27 -3 110 -7 185 l-6 137 45 0 45 0 -5 118 c-2 64 -6
119 -8 121 -2 2 -39 -4 -81 -13 -65 -15 -89 -16 -143 -7 -36 6 -68 11 -72 11
-5 0 -8 -54 -8 -120 l0 -120 43 0 44 0 6 -122 c9 -160 9 -248 0 -248 -5 0 -19
-9 -32 -19 l-24 -19 31 -16 c37 -19 41 -39 44 -234 l3 -132 -42 0 -43 0 0 -82
c0 -46 3 -100 6 -120 8 -44 18 -46 103 -24 45 11 61 12 95 1 23 -7 59 -16 80
-19 l39 -5 -7 91 c-3 50 -6 104 -6 120 0 26 -3 28 -40 28 -24 0 -42 5 -45 13
-2 6 -5 83 -7 170 l-3 157 113 0 c81 0 114 -3 116 -12 3 -7 7 -84 10 -170 l6
-158 -46 0 -47 0 6 -67 c4 -38 7 -92 7 -120 l0 -53 38 1 c20 0 55 6 77 13 32
9 48 9 77 -1 21 -7 55 -16 78 -19 l40 -7 0 116 c0 126 -1 127 -60 137 l-35 5
-3 175 -3 175 28 23 c23 19 25 24 13 32 -48 28 -48 27 -55 223 l-7 187 41 0
41 0 0 125 c0 94 -3 125 -12 124 -7 -1 -32 -5 -55 -9z"/>
<path d="M2710 2855 c-30 -8 -83 -10 -157 -7 -89 4 -121 2 -155 -11 -34 -13
-51 -15 -78 -7 -19 6 -55 10 -79 10 l-44 0 6 -142 c4 -79 7 -182 7 -230 l0
-88 44 0 c75 0 75 0 69 98 -5 79 -3 90 17 115 17 21 30 27 59 27 l38 0 7 -182
c6 -146 5 -183 -6 -189 -7 -4 -22 -14 -32 -22 -19 -14 -19 -15 11 -30 37 -19
43 -53 43 -228 l0 -119 -42 0 -43 0 3 -110 3 -110 27 0 c15 0 47 5 72 11 35 8
63 7 128 -7 45 -9 83 -15 85 -13 1 2 1 55 -1 117 l-3 112 -45 0 -44 0 0 68 c0
37 -3 111 -7 164 l-6 97 31 18 c39 22 40 27 3 42 -27 12 -29 17 -35 88 -3 42
-6 127 -6 190 l0 113 25 0 c32 0 73 -19 80 -38 3 -9 9 -58 12 -109 l6 -93 55
0 55 0 -6 158 c-4 86 -7 194 -7 240 0 93 0 93 -90 67z"/>
<path d="M1940 2815 c-32 -10 -55 -12 -85 -5 -22 5 -58 10 -79 10 l-39 0 7
-77 c3 -42 6 -92 6 -111 l0 -35 41 6 c26 3 42 1 44 -6 2 -7 6 -85 9 -174 l5
-163 -29 -15 c-38 -19 -38 -29 -1 -45 l29 -12 7 -122 c6 -103 5 -128 -9 -154
-24 -46 -67 -65 -134 -60 -88 8 -97 24 -105 194 -5 89 -4 140 3 142 5 2 20 12
32 21 l22 18 -30 16 c-31 16 -31 16 -37 123 -4 59 -7 136 -7 171 l0 63 40 0
40 0 0 108 0 109 -56 -9 c-31 -5 -65 -13 -76 -19 -13 -7 -35 -7 -69 0 -28 6
-66 11 -86 11 -32 0 -35 -2 -29 -22 3 -13 6 -60 6 -105 l0 -83 44 0 43 0 6
-82 c4 -46 7 -122 7 -170 l0 -87 -32 -17 -32 -17 35 -18 36 -18 6 -183 c7
-201 15 -242 55 -289 42 -51 103 -72 202 -72 137 0 217 33 253 103 15 31 16
56 10 241 l-6 207 33 17 c36 19 35 20 -17 51 -16 10 -18 29 -21 183 l-4 171
41 0 41 0 0 73 c0 39 -3 89 -6 110 -6 34 -9 37 -38 36 -17 0 -51 -7 -76 -14z"/>
<path d="M840 2775 c-72 -21 -123 -55 -143 -98 -14 -29 -17 -70 -17 -236 l0
-201 -32 -20 -32 -19 35 -15 36 -15 6 -163 c4 -90 11 -179 17 -199 17 -60 52
-102 105 -129 44 -22 63 -25 155 -25 113 1 159 15 207 67 38 40 43 72 43 269
l0 189 30 18 30 19 -35 16 c-33 16 -35 19 -36 69 -1 162 -17 346 -32 373 -17
34 -61 77 -96 95 -38 20 -178 22 -241 5z m190 -222 c30 -28 30 -28 36 -168 l6
-140 -32 -19 -33 -19 36 -19 37 -18 0 -129 c0 -108 -3 -132 -17 -150 -38 -47
-158 -44 -204 5 -22 24 -24 35 -27 153 l-4 127 34 16 33 16 -37 18 -38 18 0
136 c0 93 4 141 13 153 21 28 70 47 119 47 38 0 54 -6 78 -27z"/>
<path d="M440 2738 c-14 -5 -92 -11 -175 -12 -130 -1 -154 -4 -184 -21 -51
-30 -72 -80 -73 -169 0 -100 37 -181 123 -271 53 -56 59 -66 49 -84 -10 -20
-8 -21 30 -21 36 0 46 -6 101 -61 116 -116 119 -199 10 -229 -50 -13 -109 0
-137 31 -13 14 -21 41 -24 83 l-5 61 -57 3 -58 3 0 -88 c0 -48 3 -132 7 -187
l6 -98 56 7 c75 9 75 9 166 -5 137 -21 222 6 265 83 18 32 23 55 22 114 -1
101 -39 183 -121 262 -56 54 -59 59 -43 74 15 16 13 17 -28 17 -73 0 -151 70
-186 167 -24 70 -17 106 27 128 91 47 159 -16 159 -146 l0 -62 57 7 c31 4 59
9 61 11 7 7 -10 415 -17 414 -3 0 -17 -5 -31 -11z"/>
<path d="M120 1452 c0 -16 3 -63 6 -105 l7 -77 42 0 42 0 7 -92 c3 -50 6 -122
6 -159 l0 -67 -37 -13 -37 -12 36 -18 c31 -16 36 -24 42 -65 3 -26 6 -93 6
-150 l0 -104 -45 0 -45 0 0 -101 0 -101 98 3 c66 2 122 -3 175 -15 43 -10 80
-16 82 -14 3 2 2 50 -2 106 l-6 102 -29 0 c-66 0 -68 5 -68 169 l0 148 138 5
c111 4 146 8 184 26 62 27 88 69 88 140 0 53 0 54 40 69 l41 16 -38 21 c-37
21 -38 24 -45 88 -3 36 -12 76 -18 89 -52 102 -195 145 -397 120 -75 -9 -108
-9 -179 4 -48 8 -88 15 -90 15 -2 0 -4 -13 -4 -28z m442 -202 c47 -13 75 -49
84 -107 9 -63 -9 -119 -46 -138 -37 -19 -199 -21 -205 -2 -2 6 -5 67 -7 135
l-4 122 70 0 c39 0 88 -5 108 -10z"/>
<path d="M1133 1399 c4 -30 7 -80 7 -111 l0 -58 45 0 c29 0 45 -4 45 -12 0 -7
-17 -81 -37 -165 l-37 -153 -38 -12 c-21 -6 -38 -14 -38 -17 0 -4 14 -15 30
-24 25 -15 29 -22 23 -45 -3 -15 -20 -83 -37 -152 l-31 -125 -43 3 -43 2 3
-107 3 -108 95 -1 c58 0 117 -7 150 -17 72 -22 104 -22 96 -1 -3 9 -6 58 -6
110 l0 94 -34 0 c-19 0 -37 4 -40 8 -10 16 27 204 41 209 7 3 51 2 96 -2 l83
-6 23 -95 c13 -51 25 -104 28 -115 6 -21 3 -22 -35 -16 l-42 5 1 -86 c1 -48 4
-98 8 -112 7 -24 9 -25 94 -22 63 1 107 -4 159 -18 40 -11 76 -20 80 -20 5 0
8 52 8 115 l0 115 -44 0 c-25 0 -47 4 -50 8 -8 13 -86 300 -86 317 0 9 11 21
25 27 34 15 32 22 -15 43 -22 10 -42 25 -44 34 -15 49 -86 320 -86 325 0 3 20
6 45 6 l45 0 0 110 0 110 -58 0 c-32 0 -84 -5 -116 -11 -41 -7 -67 -7 -88 0
-17 6 -66 14 -111 17 l-80 7 6 -54z m272 -475 c20 -64 34 -118 31 -121 -10
-11 -136 9 -136 21 0 6 11 52 25 101 32 111 33 115 39 115 3 0 21 -52 41 -116z"/>
<path d="M1920 1377 c0 -30 3 -81 6 -114 l7 -61 48 -6 49 -7 0 -173 0 -174
-30 -12 c-39 -16 -38 -23 5 -49 l35 -20 0 -164 0 -165 -45 6 -45 5 0 -118 0
-118 91 5 c71 4 103 2 150 -13 34 -11 74 -19 90 -19 l29 0 0 78 c0 42 -3 94
-6 115 -6 33 -10 37 -38 37 -58 0 -59 3 -64 186 l-5 167 74 -7 c41 -4 92 -15
114 -26 68 -33 74 -54 84 -267 6 -156 11 -196 29 -235 26 -60 73 -85 178 -96
l77 -8 -6 114 c-7 125 -10 132 -64 132 -18 0 -33 1 -34 3 0 1 -4 67 -8 147 -9
158 -24 207 -77 249 l-27 21 26 24 c35 33 55 74 63 135 6 47 10 54 42 70 l36
18 -40 23 c-39 22 -39 23 -40 85 -1 89 -39 166 -100 201 -79 47 -159 67 -264
66 -52 0 -108 -5 -125 -10 -20 -5 -44 -4 -70 3 -22 7 -64 16 -92 20 l-53 7 0
-55z m445 -216 c36 -12 56 -26 73 -51 21 -31 23 -44 20 -123 -3 -83 -5 -90
-31 -113 -27 -23 -35 -25 -130 -22 l-102 3 -6 160 c-3 88 -3 163 -2 167 6 11
121 -2 178 -21z"/>
<path d="M2849 1386 c-2 -2 -3 -56 -1 -120 l3 -116 45 0 c27 0 46 -5 48 -12 3
-7 7 -95 10 -194 l5 -182 -40 -17 -39 -18 38 -23 39 -23 6 -122 c4 -67 7 -144
7 -172 l0 -49 -52 7 -51 7 6 -92 c4 -51 7 -106 7 -121 0 -35 36 -45 113 -30
48 9 63 7 123 -14 118 -42 114 -45 114 95 l0 119 -49 7 -49 6 -7 202 c-4 111
-6 209 -4 219 4 15 289 -420 289 -442 0 -4 -21 -6 -47 -3 l-46 5 7 -118 c4
-65 10 -123 13 -128 3 -6 38 -7 85 -4 63 5 92 3 137 -12 31 -10 70 -21 86 -24
l30 -6 -5 127 -5 127 -27 3 c-23 3 -47 36 -174 240 -81 130 -154 247 -161 258
-13 20 -4 32 134 180 133 143 151 159 180 159 38 0 38 0 27 163 -7 91 -7 92
-34 92 -15 0 -52 -5 -83 -11 -47 -10 -67 -9 -115 5 -32 9 -73 16 -92 16 l-33
0 6 -67 c4 -38 7 -94 7 -125 l0 -58 53 0 52 0 -45 -43 c-25 -23 -88 -82 -140
-131 l-95 -88 -8 38 c-4 21 -6 84 -5 138 l3 100 47 -3 48 -3 -6 124 c-4 68 -9
125 -11 127 -2 3 -41 -1 -87 -7 -70 -10 -94 -10 -147 3 -64 15 -102 19 -110
11z"/>
</g>
</svg>
